<svg width="26" height="54" viewBox="0 0 26 54" fill="none" xmlns="http://www.w3.org/2000/svg">
<path fill-rule="evenodd" clip-rule="evenodd" d="M19.712 14.498H5.37599C4.66935 14.4987 3.96975 14.6385 3.31715 14.9095C2.66455 15.1805 2.07172 15.5775 1.57251 16.0776C1.0733 16.5777 0.677492 17.1713 0.407678 17.8244C0.137864 18.4775 -0.000668826 19.1774 -1.19108e-05 19.884C-0.000800241 20.5907 0.137636 21.2907 0.407391 21.9439C0.677146 22.5971 1.07294 23.1908 1.57216 23.6911C2.07138 24.1913 2.66425 24.5883 3.31692 24.8594C3.96959 25.1305 4.66926 25.2703 5.37599 25.271H19.712C20.4187 25.2703 21.1184 25.1305 21.7711 24.8594C22.4237 24.5883 23.0166 24.1913 23.5158 23.6911C24.015 23.1908 24.4108 22.5971 24.6806 21.9439C24.9503 21.2907 25.0888 20.5907 25.088 19.884C25.0887 19.1774 24.9501 18.4775 24.6803 17.8244C24.4105 17.1713 24.0147 16.5777 23.5155 16.0776C23.0163 15.5775 22.4234 15.1805 21.7708 14.9095C21.1182 14.6385 20.4186 14.4987 19.712 14.498Z" fill="#44BEDF"/>
<path fill-rule="evenodd" clip-rule="evenodd" d="M14.336 34.249V48.613C14.3352 49.3197 14.4736 50.0197 14.7434 50.6729C15.0132 51.3261 15.4089 51.9198 15.9082 52.42C16.4074 52.9203 17.0003 53.3173 17.6529 53.5884C18.3056 53.8595 19.0053 53.9993 19.712 54C20.4187 53.9993 21.1184 53.8595 21.7711 53.5884C22.4237 53.3173 23.0166 52.9203 23.5158 52.42C24.0151 51.9198 24.4108 51.3261 24.6806 50.6729C24.9504 50.0197 25.0888 49.3197 25.088 48.613V34.25C25.0888 33.5433 24.9504 32.8433 24.6806 32.1901C24.4108 31.5369 24.0151 30.9432 23.5158 30.4429C23.0166 29.9427 22.4237 29.5457 21.7711 29.2746C21.1184 29.0035 20.4187 28.8637 19.712 28.863C19.0053 28.8637 18.3056 29.0035 17.6529 29.2746C17.0003 29.5457 16.4074 29.9427 15.9082 30.4429C15.4089 30.9432 15.0132 31.5369 14.7434 32.1901C14.4736 32.8433 14.3352 33.5423 14.336 34.249Z" fill="#E01E5A"/>
<path fill-rule="evenodd" clip-rule="evenodd" d="M19.376 0C18.6693 0.000656248 17.9696 0.140523 17.3169 0.411613C16.6643 0.682702 16.0714 1.0797 15.5722 1.57995C15.073 2.08019 14.6772 2.67387 14.4074 3.32709C14.1377 3.98031 13.9992 4.68027 14 5.387C13.9993 6.09364 14.1379 6.7935 14.4077 7.4466C14.6775 8.0997 15.0733 8.69327 15.5725 9.19341C16.0717 9.69354 16.6646 10.0905 17.3172 10.3615C17.9698 10.6325 18.6694 10.7723 19.376 10.773H24.752V5.387C24.7528 4.68027 24.6144 3.98031 24.3446 3.32709C24.0748 2.67387 23.6791 2.08019 23.1798 1.57995C22.6806 1.0797 22.0877 0.682702 21.4351 0.411613C20.7824 0.140523 20.0827 0.000656248 19.376 0Z" fill="#2EB67D"/>
<path fill-rule="evenodd" clip-rule="evenodd" d="M-3.17258e-06 34.376C0.000653076 35.0827 0.140521 35.7824 0.41161 36.4351C0.6827 37.0877 1.0797 37.6806 1.57995 38.1798C2.08019 38.6791 2.67387 39.0748 3.32709 39.3446C3.98031 39.6144 4.68027 39.7528 5.387 39.752C6.09364 39.7527 6.79349 39.6141 7.4466 39.3443C8.0997 39.0745 8.69327 38.6787 9.1934 38.1795C9.69354 37.6803 10.0905 37.0874 10.3615 36.4348C10.6325 35.7822 10.7723 35.0826 10.773 34.376V29H5.387C4.68027 28.9992 3.98031 29.1377 3.32709 29.4074C2.67387 29.6772 2.08019 30.073 1.57995 30.5722C1.0797 31.0714 0.6827 31.6643 0.41161 32.3169C0.140521 32.9696 0.000653076 33.6693 -3.17258e-06 34.376Z" fill="#ECB22E"/>
</svg>
